<svg xmlns="http://www.w3.org/2000/svg" width="569.087" height="148.224" viewBox="0 0 150.571 39.218"><path d="M12.954 39.116c4.166 0 7.874-1.524 10.693-4.013l1.397 3.505h.356l2.794-10.414h-.457c-2.235 5.69-7.468 10.312-14.275 10.312-5.283 0-7.874-4.622-7.874-9.804C5.588 16.916 11.735.61 22.606.61c5.13 0 9.601 3.454 8.687 10.312h.457L34.188.508h-.355L30.53 4.013C28.829 1.346 25.73 0 22.098 0 10.262 0 0 11.786 0 25.654c0 8.28 5.182 13.462 12.954 13.462zm32.69-8.788l-.407-.153c-1.473 4.064-4.368 8.077-7.366 8.077-.66 0-.914-.406-.914-.965 0-.254.05-.61.102-.914L45.389.508h-9.296v.457h4.674l-7.67 33.325a8.906 8.906 0 00-.102 1.118c0 2.54 1.219 3.708 3.606 3.708 4.115 0 7.112-3.708 9.043-8.788zm9.118-27.28a3.057 3.057 0 003.048 3.048 3.057 3.057 0 003.048-3.048A3.057 3.057 0 0057.81 0a3.057 3.057 0 00-3.048 3.048zm7.214 27.28l-.407-.153c-1.574 4.318-4.42 8.077-7.366 8.077-.66 0-.914-.406-.914-.965 0-.254.05-.61.102-.914l4.927-21.133h-8.23v.457h3.557L49.428 34.29c-.05.305-.101.864-.101 1.118 0 2.54 1.219 3.708 3.606 3.708 4.115 0 7.112-3.708 9.043-8.788zm8.839 1.168c0-1.32.127-2.642.356-3.912 5.994-.05 16.408-.558 16.408-7.874 0-3.657-3.099-4.978-7.772-4.978-6.655 0-14.275 5.944-14.275 15.748 0 6.096 3.962 8.636 8.077 8.636 5.639 0 9.703-3.86 11.684-7.772h-.457c-1.93 3.657-5.69 7.112-10.516 7.112-2.997 0-3.505-3.2-3.505-6.96zm9.5-16.358c1.828 0 2.387 2.185 2.387 4.572 0 6.249-6.147 7.24-11.43 7.341 1.321-6.528 5.334-11.913 9.043-11.913zm14.655.559l-5.486 22.911h4.572l2.362-9.931c2.007-7.265 6.477-13.132 10.186-13.132 2.336 0 2.438 3.505 1.117 7.417l-3.708 10.972c-.153.407-.254.966-.254 1.728 0 2.184 1.32 3.454 3.708 3.454 4.115 0 7.265-3.708 9.195-8.788l-.457-.102c-1.575 4.318-4.572 8.026-7.519 8.026-.66 0-.965-.406-.965-.965 0-.254.05-.61.153-.914l4.572-13.97c1.32-4.064.254-7.671-4.674-7.671-4.496 0-8.179 4.496-10.44 10.16l2.312-9.652h-8.128v.457zm36.729 14.631l-.458-.153c-1.574 4.318-4.42 8.077-7.315 8.077-.66 0-.914-.406-.914-.965 0-.254.05-.61.101-.914l4.37-20.676h4.825v-.457h-4.724l1.067-5.08h-4.522l-1.04 5.08h-4.497v.457h4.394l-3.835 18.593c-.05.305-.102.864-.102 1.118 0 2.54 1.22 3.708 3.607 3.708 4.115 0 7.112-3.708 9.043-8.788zm18.161-11.583c-.254-.66-.915-1.422-2.286-1.422-1.169 0-2.439 1.016-2.439 2.54 0 1.778 1.372 2.59 2.642 2.59 1.524 0 2.794-.812 2.794-2.895 0-2.388-2.794-4.775-6.757-4.775-3.708 0-8.28 2.184-8.28 7.213 0 7.417 10.566 6.706 10.566 11.938 0 2.388-2.235 4.826-5.79 4.826-4.471 0-6.656-2.438-6.91-4.673.204.66.813 1.676 2.439 1.676 1.473 0 2.895-1.016 2.895-2.794 0-2.032-1.625-2.845-2.895-2.845-1.524 0-3.15 1.067-3.15 3.15 0 2.794 2.591 5.944 7.62 5.944 4.928 0 9.5-3.048 9.5-7.824 0-6.756-10.922-6.908-10.922-12.293 0-2.337 2.235-3.861 4.927-3.861 3.2 0 5.588 1.626 6.046 3.505z" aria-label="Clients" font-style="italic" font-size="50.8" font-family="Bodoni* 24" fill="#202020"/></svg>