<svg xmlns="http://www.w3.org/2000/svg" width="659.614" height="147.84" viewBox="0 0 174.523 39.116"><path d="M12.954 39.116c4.166 0 7.874-1.524 10.693-4.013l1.397 3.505h.356l2.794-10.414h-.457c-2.235 5.69-7.468 10.312-14.275 10.312-5.283 0-7.874-4.622-7.874-9.804C5.588 16.916 11.735.61 22.606.61c5.13 0 9.601 3.454 8.687 10.312h.457L34.188.508h-.355L30.53 4.013C28.829 1.346 25.73 0 22.098 0 10.262 0 0 11.786 0 25.654c0 8.28 5.182 13.462 12.954 13.462zm27.864 0c7.67 0 15.138-6.096 15.138-15.748 0-6.604-4.47-8.636-9.093-8.636-7.67 0-15.138 6.096-15.138 15.748 0 6.604 4.47 8.636 9.093 8.636zm0-.508c-2.743 0-3.81-2.845-3.81-7.112 0-6.3 3.302-16.256 9.855-16.256 2.743 0 3.81 2.845 3.81 7.112 0 6.3-3.302 16.256-9.855 16.256zM64.11 15.697l-5.487 22.911h4.572l2.362-9.931c2.007-7.265 6.477-13.132 10.186-13.132 2.337 0 2.438 3.505 1.117 7.417l-3.708 10.972c-.152.407-.254.966-.254 1.728 0 2.184 1.32 3.454 3.708 3.454 4.115 0 7.265-3.708 9.195-8.788l-.457-.102c-1.575 4.318-4.572 8.026-7.518 8.026-.66 0-.966-.406-.966-.965 0-.254.051-.61.153-.914l4.572-13.97c1.32-4.064.254-7.671-4.674-7.671-4.496 0-8.179 4.496-10.44 10.16l2.312-9.652h-8.128v.457zm36.728 14.631l-.457-.153c-1.575 4.318-4.42 8.077-7.316 8.077-.66 0-.914-.406-.914-.965 0-.254.05-.61.102-.914l4.368-20.676h4.826v-.457h-4.724l1.067-5.08h-4.521l-1.042 5.08h-4.496v.457h4.395L88.29 34.29c-.05.305-.101.864-.101 1.118 0 2.54 1.219 3.708 3.606 3.708 4.115 0 7.112-3.708 9.043-8.788zm21.742-7.671c0-4.674-1.829-7.925-5.69-7.925-5.029 0-13.004 5.588-13.004 15.748 0 6.604 4.572 8.636 8.077 8.636 4.14 0 7.061-3.683 8.763-7.849l-.686 3.023c-.05.305-.101.864-.101 1.118 0 2.54 1.219 3.708 3.606 3.708 4.115 0 7.112-3.708 9.043-8.788l-.457-.153c-1.575 4.318-4.47 8.077-7.316 8.077-.66 0-.914-.406-.914-.965 0-.254.05-.61.102-.914l4.927-21.133h-4.572l-1.778 7.595v-.178zm-.406 0c0 5.588-3.556 15.595-9.195 15.595-2.59 0-3.81-2.692-3.81-6.756 0-6.807 4.47-15.545 9.246-15.545 2.387 0 3.759 2.997 3.759 6.706zm34.544-2.54c-.254-.711-.966-1.321-2.49-1.321-1.473 0-2.946 1.016-2.946 2.794 0 2.032 1.626 2.845 2.896 2.845 1.524 0 3.15-1.067 3.15-3.658 0-3.657-2.998-6.045-7.672-6.045-6.654 0-14.122 6.096-14.122 15.748 0 6.604 4.47 8.636 8.077 8.636 4.623 0 9.347-2.845 11.684-7.772h-.457c-2.388 4.775-6.909 7.162-10.516 7.162-2.743 0-3.505-2.743-3.505-7.01 0-6.3 3.15-16.205 9.703-16.205 3.912 0 6.045 2.337 6.198 4.826zm17.195 10.211l-.457-.153c-1.575 4.318-4.42 8.077-7.315 8.077-.66 0-.915-.406-.915-.965 0-.254.051-.61.102-.914l4.369-20.676h4.826v-.457h-4.725l1.067-5.08h-4.521l-1.041 5.08h-4.496v.457h4.394l-3.835 18.593a9.098 9.098 0 00-.102 1.118c0 2.54 1.22 3.708 3.607 3.708 4.115 0 7.112-3.708 9.042-8.788z" aria-label="Contact" font-style="italic" font-size="50.8" font-family="Bodoni* 24" fill="#202020"/></svg>