<svg viewBox="0 0 400 400" xmlns="http://www.w3.org/2000/svg" fill-rule="evenodd" clip-rule="evenodd" stroke-linejoin="round" stroke-miterlimit="2"><path d="M277.636 168.546c.58 2.083 1.161 4.582 1.742 7.08.58 2.916 1.16 5.415 1.741 8.33.58 4.997 1.161 11.245 1.742 17.908.58 7.08 1.161 14.577 1.161 22.906 0 12.494-1.161 26.238-3.483 41.23-1.742 14.994-5.806 29.987-11.612 45.812-5.806 15.41-13.934 30.82-24.384 45.812-9.87 15.41-23.223 29.153-40.06 42.48H77.916c-11.03-7.913-20.9-16.242-28.448-25.404-8.128-9.163-15.095-19.158-20.901-29.153-5.806-9.996-11.031-20.408-14.515-31.236-3.483-10.828-6.386-21.24-8.708-31.652-2.323-10.828-3.484-21.24-4.064-31.235C.119 241.43.119 232.266.119 223.104c0-7.913 0-15.41.58-22.073 0-6.247.58-12.078 1.161-17.075.58-5.414 1.161-10.828 2.323-15.41h273.453zm-83.604-20.823c-2.322 0-6.386-.833-11.03-2.915-4.645-1.666-9.87-4.582-14.515-7.913-4.645-3.332-8.709-7.497-12.192-12.495-3.484-4.997-5.226-10.411-5.226-16.242 0-4.165 1.162-8.33 2.323-12.078 1.741-3.748 4.064-7.496 6.386-10.828 2.322-3.748 5.225-7.08 8.128-10.828 3.484-3.332 5.806-6.664 8.709-9.995 2.322-3.749 4.645-7.08 6.386-10.412 1.742-3.332 2.903-6.247 2.903-9.579 0-6.663-1.161-12.078-3.483-16.242-1.742-3.749-4.064-7.08-6.387-9.58-2.322-2.498-4.064-4.58-6.386-6.246-1.742-1.666-2.903-2.916-2.903-4.581 0-2.5 1.161-4.582 2.903-5.831 1.161-1.25 4.064-2.082 7.547-2.082 2.903 0 6.387 1.25 11.612 3.748 4.645 2.499 9.87 5.83 14.515 9.995 4.644 4.165 8.708 8.746 12.772 14.577 3.484 5.414 5.226 11.244 5.226 17.075 0 6.247-1.742 12.078-5.226 17.075-3.483 5.414-7.547 10.412-11.611 15.41-4.064 4.997-8.128 9.579-11.612 14.16-3.483 4.997-5.225 9.995-5.225 15.41 0 5.413.58 9.578 2.322 12.91 1.742 3.748 4.064 6.247 5.806 8.746 2.322 2.082 4.064 4.164 5.806 5.83 2.322 1.666 2.903 3.748 2.903 5.83 0 2.5-.58 4.166-2.323 5.415-1.741 1.25-4.064 1.666-8.128 1.666zm-77.797-.417c-1.742 0-4.645-.416-8.129-1.666-3.483-.832-6.967-2.498-10.45-4.58-3.483-2.083-6.386-4.582-8.709-7.497-2.903-3.332-4.064-7.08-4.064-11.661 0-3.332.58-6.664 2.323-9.58 1.741-3.331 3.483-6.246 5.225-9.162 1.742-2.498 3.483-5.414 5.225-7.912 1.161-2.5 2.322-5.415 2.322-7.913 0-4.582-1.16-7.913-2.322-10.412-1.742-2.499-3.483-4.581-4.645-5.83-1.741-1.667-3.483-2.5-4.644-3.333-1.161-.833-1.742-1.665-1.742-2.498 0-4.165 2.322-5.831 6.967-5.831 2.322 0 5.225.833 8.709 2.082 3.483 1.25 6.967 3.332 10.45 5.83 3.484 2.5 6.967 5.415 9.29 8.747 2.902 3.748 4.063 7.913 4.063 12.494 0 3.332-.58 6.247-2.322 9.162-1.161 2.5-2.903 4.998-5.225 7.497-1.742 2.499-3.484 5.414-4.645 7.913-1.742 2.499-2.322 5.414-2.322 8.33 0 3.747.58 6.663 1.742 8.745 1.16 2.082 2.322 3.748 4.064 4.998 1.741 1.25 2.903 2.082 4.644 2.915 1.162.833 1.742 2.082 1.742 3.748 0 3.748-2.903 5.414-7.547 5.414zm189.269 21.24c17.998 4.165 33.673 10.412 47.027 18.742a75.81 75.81 0 0117.417 12.494c5.806 4.58 11.031 9.995 15.676 16.242 4.064 6.247 7.547 12.91 10.45 20.824 2.322 7.496 4.064 15.826 4.064 25.404 0 9.996-2.322 19.575-5.806 27.904-4.064 8.33-9.289 15.826-15.095 22.906-6.386 6.663-13.353 12.494-21.481 17.492-8.128 5.414-16.837 9.578-24.965 13.327-20.32 9.162-42.963 15.826-67.928 20.407l17.998-32.901c15.095-3.332 29.029-8.33 41.221-14.577 5.225-2.915 9.87-5.83 15.095-9.162 4.645-3.332 9.29-7.497 12.773-11.661 4.064-4.582 7.548-9.58 9.87-14.577 2.322-5.414 3.483-11.245 3.483-17.908 0-6.664-1.16-12.91-2.903-18.325-1.741-4.998-4.064-9.995-6.966-14.16-2.903-4.165-5.806-7.913-9.29-10.828-4.064-3.332-7.547-5.83-11.03-8.33-8.71-4.997-18.58-8.746-29.61-10.828v-32.485z" fill="#6f4e37" fill-rule="nonzero"/></svg>