<svg viewBox="0 0 1426 147" xmlns="http://www.w3.org/2000/svg" fill-rule="evenodd" clip-rule="evenodd" stroke-linejoin="round" stroke-miterlimit="2"><path d="M-.078 108.144v1.296h23.04v-1.296H11.298L33.33 4.752 49.89 110.88h1.728L111.09 3.888 88.914 108.144H78.546v1.296h43.92v-1.296h-11.232l22.32-105.408h9.072V1.44h-31.68L67.89 78.624 55.362 1.44H21.666v1.296h10.8L10.002 108.144H-.078zm160.632 2.736c22.464 0 44.352-16.56 44.352-43.92 0-18-14.832-25.2-28.656-25.2-22.464 0-44.352 16.56-44.352 43.92 0 18 14.832 25.2 28.656 25.2zm0-1.296c-5.616 0-7.92-5.616-7.92-15.264 0-17.856 9.36-51.264 23.616-51.264 5.616 0 7.92 5.616 7.92 15.264 0 17.856-9.36 51.264-23.616 51.264zm84.24 1.296c22.464 0 44.352-16.56 44.352-43.92 0-18-14.832-25.2-28.656-25.2-22.464 0-44.352 16.56-44.352 43.92 0 18 14.832 25.2 28.656 25.2zm0-1.296c-5.616 0-7.92-5.616-7.92-15.264 0-17.856 9.36-51.264 23.616-51.264 5.616 0 7.92 5.616 7.92 15.264 0 17.856-9.36 51.264-23.616 51.264zm67.32-65.088l-15.552 64.944h20.16l6.912-29.088c5.616-20.016 15.408-35.568 24.192-35.568 5.04 0 4.32 9.504.576 20.448l-9.792 28.8c-.432 1.296-.72 3.024-.72 5.184 0 7.632 5.184 11.664 14.832 11.664 13.824 0 22.608-10.512 28.08-24.912l-1.296-.432c-4.464 12.24-12.672 22.32-20.592 22.32-1.872 0-2.736-1.008-2.736-2.592 0-.72.144-1.728.432-2.592l12.528-37.584c4.464-13.536-1.584-23.328-16.272-23.328-12.816 0-20.736 11.808-26.496 27.216l6.192-25.776h-30.24v1.296h9.792zm127.368 7.776c-1.152-2.304-3.024-3.888-6.624-3.888-4.464 0-8.352 3.6-8.352 8.64 0 5.76 5.04 8.784 9.216 8.784 5.184 0 9.072-3.456 9.072-9.36 0-7.488-8.352-14.544-23.04-14.544-12.384 0-26.784 7.632-26.784 21.888 0 21.024 32.832 21.888 32.832 34.56 0 6.048-6.336 11.52-16.416 11.52-14.976 0-21.456-6.48-23.184-12.24.576 1.872 3.456 4.464 7.632 4.464 4.896 0 9.648-3.6 9.648-9.36 0-6.48-5.472-9.504-9.792-9.504-5.04 0-10.224 3.744-10.224 10.368 0 7.92 7.344 17.568 25.92 17.568 16.128 0 29.808-10.08 29.808-23.616 0-19.152-32.4-20.88-32.4-34.704 0-5.184 4.608-9.648 13.248-9.648 10.944 0 17.856 4.464 19.44 9.072zm58.536 12.96l-9.792 28.8c-.288 1.296-.72 3.024-.72 5.184 0 7.632 5.184 11.664 14.832 11.664 13.824 0 22.32-10.512 27.792-24.912l-1.152-.432c-4.464 12.24-12.528 22.32-20.448 22.32-1.872 0-2.736-1.008-2.736-2.592 0-.72.144-1.728.432-2.592l12.528-37.584c4.464-13.536-1.584-23.328-16.272-23.328-13.104 0-21.024 12.24-26.784 27.936L491.682 1.44h-30.24v1.296h9.792L446.322 109.44h20.16l6.336-27.792c5.616-20.736 15.696-36.864 24.624-36.864 5.04 0 4.32 9.504.576 20.448zm69.12 45.648c22.464 0 44.352-16.56 44.352-43.92 0-18-14.832-25.2-28.656-25.2-22.464 0-44.352 16.56-44.352 43.92 0 18 14.832 25.2 28.656 25.2zm0-1.296c-5.616 0-7.92-5.616-7.92-15.264 0-17.856 9.36-51.264 23.616-51.264 5.616 0 7.92 5.616 7.92 15.264 0 17.856-9.36 51.264-23.616 51.264zm99.864-23.616l-1.152-.432c-4.032 10.8-12.24 21.456-20.448 21.456-1.872 0-2.592-1.152-2.592-2.736 0-.72.144-1.728.288-2.592l13.248-57.168h13.968V43.2h-13.68l3.312-14.4H639.93l-3.312 14.4h-12.384v1.296h12.096L624.522 95.76c-.144.864-.288 2.448-.288 3.168 0 8.64 4.752 11.952 13.536 11.952 13.824 0 23.904-10.512 29.232-24.912zm83.664 23.472c37.152 0 64.656-32.688 64.656-69.84 0-25.632-18.288-38.16-41.616-38.16h-49.68v1.296h14.112l-23.904 105.408h-13.392v1.296h49.824zm20.88-106.704c15.696 0 19.44 14.256 19.44 27.504 0 26.928-14.544 77.904-43.2 77.904h-11.232L760.458 2.736h11.088zm69.84 90c0-4.32.432-8.928 1.44-13.392 16.848-.432 45.36-3.6 45.36-22.752 0-10.368-10.944-14.832-24.912-14.832-21.024 0-44.064 18.288-44.064 45.36 0 17.28 12.672 23.76 26.496 23.76 15.984 0 28.944-10.944 35.28-22.032h-1.296c-6.336 10.512-17.856 19.296-28.656 19.296-7.056 0-9.648-6.912-9.648-15.408zm22.896-49.824c4.032 0 5.04 5.76 5.04 11.088 0 17.568-15.408 23.04-26.208 24.048 3.744-18.144 13.392-35.136 21.168-35.136zm81.72 9.36c-1.152-2.304-3.024-3.888-6.624-3.888-4.464 0-8.352 3.6-8.352 8.64 0 5.76 5.04 8.784 9.216 8.784 5.184 0 9.072-3.456 9.072-9.36 0-7.488-8.352-14.544-23.04-14.544-12.384 0-26.784 7.632-26.784 21.888 0 21.024 32.832 21.888 32.832 34.56 0 6.048-6.336 11.52-16.416 11.52-14.976 0-21.456-6.48-23.184-12.24.576 1.872 3.456 4.464 7.632 4.464 4.896 0 9.648-3.6 9.648-9.36 0-6.48-5.472-9.504-9.792-9.504-5.04 0-10.224 3.744-10.224 10.368 0 7.92 7.344 17.568 25.92 17.568 16.128 0 29.808-10.08 29.808-23.616 0-19.152-32.4-20.88-32.4-34.704 0-5.184 4.608-9.648 13.248-9.648 10.944 0 17.856 4.464 19.44 9.072zm31.612-40.032c0 6.912 5.328 12.24 12.096 12.24 6.912 0 12.384-5.328 12.384-12.24S996.622 0 989.71 0c-6.768 0-12.096 5.328-12.096 12.24zm28.368 73.728l-1.008-.432c-4.464 11.952-13.104 21.6-20.448 21.6-1.872 0-2.592-1.296-2.592-2.88 0-.72.144-1.728.288-2.592L996.334 43.2H965.23v1.296h10.8L963.646 95.76c-.144.864-.288 2.448-.288 3.168 0 8.64 4.608 11.952 13.536 11.952 13.824 0 23.76-10.512 29.088-24.912zm32.97.432c18.144 0 34.992-10.8 34.992-26.64 0-3.6-.864-6.624-2.448-9.072 4.752-4.896 9.792-6.912 14.112-6.912 5.184 0 9.504 2.592 10.512 8.208-.576-2.016-3.6-4.608-7.2-4.608-5.184 0-9.072 3.744-9.072 8.496 0 6.192 4.752 9.072 9.072 9.072 4.32 0 9.072-2.736 9.072-10.656 0-6.048-4.032-11.808-12.384-11.808-4.32 0-9.792 2.016-14.832 7.056-4.32-5.472-12.384-7.776-21.744-7.776-18.144 0-34.992 10.8-34.992 26.64 0 10.512 7.344 15.84 17.424 17.424-11.088 1.584-22.176 6.336-22.176 15.84 0 6.048 4.896 9.792 12.24 11.52-7.92.864-23.76 5.616-23.76 18 0 11.808 17.136 15.696 34.128 15.696 19.44 0 40.032-11.088 40.032-31.392 0-12.384-6.48-18.288-19.44-18.288-4.032 0-10.224.144-15.264.144-8.064 0-14.256-1.008-14.256-4.176 0-4.176 6.912-6.192 12.384-6.912 1.152 0 2.304.144 3.6.144zm.288-1.296c-4.176 0-5.616-5.328-5.616-10.224 0-12.096 6.48-31.824 14.976-31.824 4.176 0 5.616 5.328 5.616 10.224 0 12.096-6.48 31.824-14.976 31.824zm-23.904 44.496c0-7.488 3.744-13.68 8.208-15.984 2.736.576 5.904.72 9.216.72h18.288c7.92 0 12.384 2.736 12.384 10.512 0 14.688-18 20.592-30.816 20.592-12.384 0-17.28-6.48-17.28-15.84zm101.38-85.104l-15.552 64.944h20.16l6.912-29.088c5.616-20.016 15.408-35.568 24.192-35.568 5.04 0 4.32 9.504.576 20.448l-9.792 28.8c-.432 1.296-.72 3.024-.72 5.184 0 7.632 5.184 11.664 14.832 11.664 13.824 0 22.608-10.512 28.08-24.912l-1.296-.432c-4.464 12.24-12.672 22.32-20.592 22.32-1.872 0-2.736-1.008-2.736-2.592 0-.72.144-1.728.432-2.592l12.528-37.584c4.464-13.536-1.584-23.328-16.272-23.328-12.816 0-20.736 11.808-26.496 27.216l6.192-25.776h-30.24v1.296h9.792zm155.736 66.384c10.656 0 20.304-4.32 28.224-10.8l8.208 9.36h1.008l7.92-31.68h-1.296c-9.648 16.992-24.336 31.104-41.328 31.104-14.976 0-19.296-12.096-19.296-26.064 0-29.808 15.264-80.64 43.92-80.64 11.808 0 24.336 9.216 25.632 30.96h1.296l7.2-31.68h-1.008l-12.816 9.792C1314.644 4.032 1306.58 0 1296.212 0c-34.992 0-64.08 33.408-64.08 72.72 0 23.472 16.128 38.16 40.32 38.16zm83.232 0c22.464 0 44.352-16.56 44.352-43.92 0-18-14.832-25.2-28.656-25.2-22.464 0-44.352 16.56-44.352 43.92 0 18 14.832 25.2 28.656 25.2zm0-1.296c-5.616 0-7.92-5.616-7.92-15.264 0-17.856 9.36-51.264 23.616-51.264 5.616 0 7.92 5.616 7.92 15.264 0 17.856-9.36 51.264-23.616 51.264zm43.486-11.664c0 7.056 5.904 12.96 12.96 12.96 7.2 0 12.96-5.904 12.96-12.96 0-7.2-5.76-12.96-12.96-12.96-7.056 0-12.96 5.76-12.96 12.96z" fill="#f5f6f6" fill-rule="nonzero"/></svg>