<?xml version="1.0" encoding="UTF-8" standalone="no"?>
<svg
   xmlns:dc="http://purl.org/dc/elements/1.1/"
   xmlns:cc="http://creativecommons.org/ns#"
   xmlns:rdf="http://www.w3.org/1999/02/22-rdf-syntax-ns#"
   xmlns:svg="http://www.w3.org/2000/svg"
   xmlns="http://www.w3.org/2000/svg"
   xmlns:sodipodi="http://sodipodi.sourceforge.net/DTD/sodipodi-0.dtd"
   xmlns:inkscape="http://www.inkscape.org/namespaces/inkscape"
   width="150.57082mm"
   height="39.217598mm"
   viewBox="0 0 150.57082 39.217598"
   version="1.1"
   id="svg8"
   inkscape:version="1.0.1 (3bc2e813f5, 2020-09-07)"
   sodipodi:docname="clients.svg">
  <defs
     id="defs2" />
  <sodipodi:namedview
     id="base"
     pagecolor="#ffffff"
     bordercolor="#666666"
     borderopacity="1.0"
     inkscape:pageopacity="0.0"
     inkscape:pageshadow="2"
     inkscape:zoom="1.4142136"
     inkscape:cx="367.86239"
     inkscape:cy="77.750818"
     inkscape:document-units="px"
     inkscape:current-layer="text12"
     inkscape:document-rotation="0"
     showgrid="false"
     inkscape:pagecheckerboard="true"
     inkscape:window-width="1920"
     inkscape:window-height="1016"
     inkscape:window-x="0"
     inkscape:window-y="32"
     inkscape:window-maximized="1" />
  <metadata
     id="metadata5">
    <rdf:RDF>
      <cc:Work
         rdf:about="">
        <dc:format>image/svg+xml</dc:format>
        <dc:type
           rdf:resource="http://purl.org/dc/dcmitype/StillImage" />
        <dc:title></dc:title>
      </cc:Work>
    </rdf:RDF>
  </metadata>
  <g
     inkscape:label="Layer 1"
     inkscape:groupmode="layer"
     id="layer1"
     transform="translate(-333.70535,-127.5951)">
    <g
       aria-label="Clients"
       id="text12"
       style="font-style:italic;font-size:50.8px;line-height:1.25;font-family:'Bodoni* 24';-inkscape-font-specification:'Bodoni* 24 Italic';stroke-width:0.264583">
      <path
         d="m 346.65935,166.71109 c 4.1656,0 7.874,-1.524 10.6934,-4.0132 l 1.397,3.5052 h 0.3556 l 2.794,-10.414 h -0.4572 c -2.2352,5.6896 -7.4676,10.3124 -14.2748,10.3124 -5.2832,0 -7.874,-4.6228 -7.874,-9.8044 0,-11.7856 6.1468,-28.09239 17.018,-28.09239 5.1308,0 9.6012,3.4544 8.6868,10.31239 h 0.4572 l 2.4384,-10.41399 h -0.3556 l -3.302,3.5052 c -1.7018,-2.667 -4.8006,-4.0132 -8.4328,-4.0132 -11.8364,0 -22.098,11.78559 -22.098,25.65399 0,8.2804 5.1816,13.462 12.954,13.462 z"
         style="fill:#202020;fill-opacity:1;stroke-width:0.264583"
         id="path946" />
      <path
         d="m 379.34907,157.92269 -0.4064,-0.1524 c -1.4732,4.064 -4.3688,8.0772 -7.366,8.0772 -0.6604,0 -0.9144,-0.4064 -0.9144,-0.9652 0,-0.254 0.0508,-0.6096 0.1016,-0.9144 l 8.3312,-35.86479 h -9.2964 v 0.4572 h 4.6736 l -7.6708,33.32479 c -0.0508,0.3048 -0.1016,0.8636 -0.1016,1.1176 0,2.54 1.2192,3.7084 3.6068,3.7084 4.1148,0 7.112,-3.7084 9.0424,-8.7884 z"
         style="fill:#202020;fill-opacity:1;stroke-width:0.264583"
         id="path948" />
      <path
         d="m 388.4676,130.6431 c 0,1.67639 1.3716,3.04799 3.048,3.04799 1.6764,0 3.048,-1.3716 3.048,-3.04799 0,-1.6764 -1.3716,-3.048 -3.048,-3.048 -1.6764,0 -3.048,1.3716 -3.048,3.048 z m 7.2136,27.27959 -0.4064,-0.1524 c -1.5748,4.318 -4.4196,8.0772 -7.366,8.0772 -0.6604,0 -0.9144,-0.4064 -0.9144,-0.9652 0,-0.254 0.0508,-0.6096 0.1016,-0.9144 l 4.9276,-21.1328 h -8.2296 v 0.4572 h 3.556 l -4.2164,18.5928 c -0.0508,0.3048 -0.1016,0.8636 -0.1016,1.1176 0,2.54 1.2192,3.7084 3.6068,3.7084 4.1148,0 7.112,-3.7084 9.0424,-8.7884 z"
         style="fill:#202020;fill-opacity:1;stroke-width:0.264583"
         id="path950" />
      <path
         d="m 404.5203,159.09109 c 0,-1.3208 0.127,-2.6416 0.3556,-3.9116 5.9944,-0.0508 16.4084,-0.5588 16.4084,-7.874 0,-3.6576 -3.0988,-4.9784 -7.7724,-4.9784 -6.6548,0 -14.2748,5.9436 -14.2748,15.748 0,6.096 3.9624,8.636 8.0772,8.636 5.6388,0 9.7028,-3.8608 11.684,-7.7724 h -0.4572 c -1.9304,3.6576 -5.6896,7.112 -10.5156,7.112 -2.9972,0 -3.5052,-3.2004 -3.5052,-6.9596 z m 9.4996,-16.3576 c 1.8288,0 2.3876,2.1844 2.3876,4.572 0,6.2484 -6.1468,7.239 -11.43,7.3406 1.3208,-6.5278 5.334,-11.9126 9.0424,-11.9126 z"
         style="fill:#202020;fill-opacity:1;stroke-width:0.264583"
         id="path952" />
      <path
         d="m 428.67567,143.29229 -5.4864,22.9108 h 4.572 l 2.3622,-9.9314 c 2.0066,-7.2644 6.477,-13.1318 10.1854,-13.1318 2.3368,0 2.4384,3.5052 1.1176,7.4168 l -3.7084,10.9728 c -0.1524,0.4064 -0.254,0.9652 -0.254,1.7272 0,2.1844 1.3208,3.4544 3.7084,3.4544 4.1148,0 7.2644,-3.7084 9.1948,-8.7884 l -0.4572,-0.1016 c -1.5748,4.318 -4.572,8.0264 -7.5184,8.0264 -0.6604,0 -0.9652,-0.4064 -0.9652,-0.9652 0,-0.254 0.0508,-0.6096 0.1524,-0.9144 l 4.572,-13.97 c 1.3208,-4.064 0.254,-7.6708 -4.6736,-7.6708 -4.4958,0 -8.1788,4.4958 -10.4394,10.16 l 2.3114,-9.652 h -8.128 v 0.4572 z"
         style="fill:#202020;fill-opacity:1;stroke-width:0.264583"
         id="path954" />
      <path
         d="m 465.40403,157.92269 -0.4572,-0.1524 c -1.5748,4.318 -4.4196,8.0772 -7.3152,8.0772 -0.6604,0 -0.9144,-0.4064 -0.9144,-0.9652 0,-0.254 0.0508,-0.6096 0.1016,-0.9144 l 4.3688,-20.6756 h 4.826 v -0.4572 h -4.7244 l 1.0668,-5.08 h -4.5212 l -1.0414,5.08 h -4.4958 v 0.4572 h 4.3942 l -3.8354,18.5928 c -0.0508,0.3048 -0.1016,0.8636 -0.1016,1.1176 0,2.54 1.2192,3.7084 3.6068,3.7084 4.1148,0 7.112,-3.7084 9.0424,-8.7884 z"
         style="fill:#202020;fill-opacity:1;stroke-width:0.264583"
         id="path956" />
      <path
         d="m 483.56497,146.34029 c -0.254,-0.6604 -0.9144,-1.4224 -2.286,-1.4224 -1.1684,0 -2.4384,1.016 -2.4384,2.54 0,1.778 1.3716,2.5908 2.6416,2.5908 1.524,0 2.794,-0.8128 2.794,-2.8956 0,-2.3876 -2.794,-4.7752 -6.7564,-4.7752 -3.7084,0 -8.2804,2.1844 -8.2804,7.2136 0,7.4168 10.5664,6.7056 10.5664,11.938 0,2.3876 -2.2352,4.826 -5.7912,4.826 -4.4704,0 -6.6548,-2.4384 -6.9088,-4.6736 0.2032,0.6604 0.8128,1.6764 2.4384,1.6764 1.4732,0 2.8956,-1.016 2.8956,-2.794 0,-2.032 -1.6256,-2.8448 -2.8956,-2.8448 -1.524,0 -3.1496,1.0668 -3.1496,3.1496 0,2.794 2.5908,5.9436 7.62,5.9436 4.9276,0 9.4996,-3.048 9.4996,-7.8232 0,-6.7564 -10.922,-6.9088 -10.922,-12.2936 0,-2.3368 2.2352,-3.8608 4.9276,-3.8608 3.2004,0 5.588,1.6256 6.0452,3.5052 z"
         style="fill:#202020;fill-opacity:1;stroke-width:0.264583"
         id="path958" />
    </g>
  </g>
</svg>
