<?xml version="1.0" encoding="UTF-8" standalone="no"?>
<svg
   xmlns:dc="http://purl.org/dc/elements/1.1/"
   xmlns:cc="http://creativecommons.org/ns#"
   xmlns:rdf="http://www.w3.org/1999/02/22-rdf-syntax-ns#"
   xmlns:svg="http://www.w3.org/2000/svg"
   xmlns="http://www.w3.org/2000/svg"
   xmlns:sodipodi="http://sodipodi.sourceforge.net/DTD/sodipodi-0.dtd"
   xmlns:inkscape="http://www.inkscape.org/namespaces/inkscape"
   width="174.52286mm"
   height="39.116001mm"
   viewBox="0 0 174.52286 39.116001"
   version="1.1"
   id="svg8"
   sodipodi:docname="contact.svg"
   inkscape:version="1.0.1 (3bc2e813f5, 2020-09-07)">
  <defs
     id="defs2" />
  <sodipodi:namedview
     id="base"
     pagecolor="#ffffff"
     bordercolor="#666666"
     borderopacity="1.0"
     inkscape:pageopacity="0.0"
     inkscape:pageshadow="2"
     inkscape:zoom="1"
     inkscape:cx="248.27369"
     inkscape:cy="200.47772"
     inkscape:document-units="px"
     inkscape:current-layer="text12"
     inkscape:document-rotation="0"
     showgrid="false"
     inkscape:pagecheckerboard="true"
     inkscape:window-width="1920"
     inkscape:window-height="1016"
     inkscape:window-x="0"
     inkscape:window-y="32"
     inkscape:window-maximized="1" />
  <metadata
     id="metadata5">
    <rdf:RDF>
      <cc:Work
         rdf:about="">
        <dc:format>image/svg+xml</dc:format>
        <dc:type
           rdf:resource="http://purl.org/dc/dcmitype/StillImage" />
        <dc:title></dc:title>
      </cc:Work>
    </rdf:RDF>
  </metadata>
  <g
     inkscape:label="Layer 1"
     inkscape:groupmode="layer"
     id="layer1"
     transform="translate(-333.70535,-127.5951)">
    <g
       aria-label="Contact"
       id="text12"
       style="font-style:italic;font-size:50.8px;line-height:1.25;font-family:'Bodoni* 24';-inkscape-font-specification:'Bodoni* 24 Italic';stroke-width:0.264583">
      <path
         d="m 346.65935,166.71109 c 4.1656,0 7.874,-1.524 10.6934,-4.0132 l 1.397,3.5052 h 0.3556 l 2.794,-10.414 h -0.4572 c -2.2352,5.6896 -7.4676,10.3124 -14.2748,10.3124 -5.2832,0 -7.874,-4.6228 -7.874,-9.8044 0,-11.7856 6.1468,-28.09239 17.018,-28.09239 5.1308,0 9.6012,3.4544 8.6868,10.31239 h 0.4572 l 2.4384,-10.41399 h -0.3556 l -3.302,3.5052 c -1.7018,-2.667 -4.8006,-4.0132 -8.4328,-4.0132 -11.8364,0 -22.098,11.78559 -22.098,25.65399 0,8.2804 5.1816,13.462 12.954,13.462 z"
         style="fill:#202020;fill-opacity:1;stroke-width:0.264583"
         id="path986" />
      <path
         d="m 374.52307,166.71109 c 7.6708,0 15.1384,-6.096 15.1384,-15.748 0,-6.604 -4.4704,-8.636 -9.0932,-8.636 -7.6708,0 -15.1384,6.096 -15.1384,15.748 0,6.604 4.4704,8.636 9.0932,8.636 z m 0,-0.508 c -2.7432,0 -3.81,-2.8448 -3.81,-7.112 0,-6.2992 3.302,-16.256 9.8552,-16.256 2.7432,0 3.81,2.8448 3.81,7.112 0,6.2992 -3.302,16.256 -9.8552,16.256 z"
         style="fill:#202020;fill-opacity:1;stroke-width:0.264583"
         id="path988" />
      <path
         d="m 397.81486,143.29229 -5.4864,22.9108 h 4.572 l 2.3622,-9.9314 c 2.0066,-7.2644 6.477,-13.1318 10.1854,-13.1318 2.3368,0 2.4384,3.5052 1.1176,7.4168 l -3.7084,10.9728 c -0.1524,0.4064 -0.254,0.9652 -0.254,1.7272 0,2.1844 1.3208,3.4544 3.7084,3.4544 4.1148,0 7.2644,-3.7084 9.1948,-8.7884 l -0.4572,-0.1016 c -1.5748,4.318 -4.572,8.0264 -7.5184,8.0264 -0.6604,0 -0.9652,-0.4064 -0.9652,-0.9652 0,-0.254 0.0508,-0.6096 0.1524,-0.9144 l 4.572,-13.97 c 1.3208,-4.064 0.254,-7.6708 -4.6736,-7.6708 -4.4958,0 -8.1788,4.4958 -10.4394,10.16 l 2.3114,-9.652 h -8.128 v 0.4572 z"
         style="fill:#202020;fill-opacity:1;stroke-width:0.264583"
         id="path990" />
      <path
         d="m 434.54322,157.92269 -0.4572,-0.1524 c -1.5748,4.318 -4.4196,8.0772 -7.3152,8.0772 -0.6604,0 -0.9144,-0.4064 -0.9144,-0.9652 0,-0.254 0.0508,-0.6096 0.1016,-0.9144 l 4.3688,-20.6756 h 4.826 v -0.4572 h -4.7244 l 1.0668,-5.08 h -4.5212 l -1.0414,5.08 h -4.4958 v 0.4572 h 4.3942 l -3.8354,18.5928 c -0.0508,0.3048 -0.1016,0.8636 -0.1016,1.1176 0,2.54 1.2192,3.7084 3.6068,3.7084 4.1148,0 7.112,-3.7084 9.0424,-8.7884 z"
         style="fill:#202020;fill-opacity:1;stroke-width:0.264583"
         id="path992" />
      <path
         d="m 456.28546,150.25189 c 0,-4.6736 -1.8288,-7.9248 -5.6896,-7.9248 -5.0292,0 -13.0048,5.588 -13.0048,15.748 0,6.604 4.572,8.636 8.0772,8.636 4.1402,0 7.0612,-3.683 8.763,-7.8486 l -0.6858,3.0226 c -0.0508,0.3048 -0.1016,0.8636 -0.1016,1.1176 0,2.54 1.2192,3.7084 3.6068,3.7084 4.1148,0 7.112,-3.7084 9.0424,-8.7884 l -0.4572,-0.1524 c -1.5748,4.318 -4.4704,8.0772 -7.3152,8.0772 -0.6604,0 -0.9144,-0.4064 -0.9144,-0.9652 0,-0.254 0.0508,-0.6096 0.1016,-0.9144 l 4.9276,-21.1328 h -4.572 l -1.778,7.5946 c 0,-0.0508 0,-0.127 0,-0.1778 z m -0.4064,0 c 0,5.588 -3.556,15.5956 -9.1948,15.5956 -2.5908,0 -3.81,-2.6924 -3.81,-6.7564 0,-6.8072 4.4704,-15.5448 9.2456,-15.5448 2.3876,0 3.7592,2.9972 3.7592,6.7056 z"
         style="fill:#202020;fill-opacity:1;stroke-width:0.264583"
         id="path994" />
      <path
         d="m 490.42293,147.71189 c -0.254,-0.7112 -0.9652,-1.3208 -2.4892,-1.3208 -1.4732,0 -2.9464,1.016 -2.9464,2.794 0,2.032 1.6256,2.8448 2.8956,2.8448 1.524,0 3.1496,-1.0668 3.1496,-3.6576 0,-3.6576 -2.9972,-6.0452 -7.6708,-6.0452 -6.6548,0 -14.1224,6.096 -14.1224,15.748 0,6.604 4.4704,8.636 8.0772,8.636 4.6228,0 9.3472,-2.8448 11.684,-7.7724 h -0.4572 c -2.3876,4.7752 -6.9088,7.1628 -10.5156,7.1628 -2.7432,0 -3.5052,-2.7432 -3.5052,-7.0104 0,-6.2992 3.1496,-16.2052 9.7028,-16.2052 3.9116,0 6.0452,2.3368 6.1976,4.826 z"
         style="fill:#202020;fill-opacity:1;stroke-width:0.264583"
         id="path996" />
      <path
         d="m 507.6186,157.92269 -0.4572,-0.1524 c -1.5748,4.318 -4.4196,8.0772 -7.3152,8.0772 -0.6604,0 -0.9144,-0.4064 -0.9144,-0.9652 0,-0.254 0.0508,-0.6096 0.1016,-0.9144 l 4.3688,-20.6756 h 4.826 v -0.4572 h -4.7244 l 1.0668,-5.08 h -4.5212 l -1.0414,5.08 h -4.4958 v 0.4572 h 4.3942 l -3.8354,18.5928 c -0.0508,0.3048 -0.1016,0.8636 -0.1016,1.1176 0,2.54 1.2192,3.7084 3.6068,3.7084 4.1148,0 7.112,-3.7084 9.0424,-8.7884 z"
         style="fill:#202020;fill-opacity:1;stroke-width:0.264583"
         id="path998" />
    </g>
  </g>
</svg>
