<?xml version="1.0" encoding="UTF-8" standalone="no"?>
<svg
   xmlns:dc="http://purl.org/dc/elements/1.1/"
   xmlns:cc="http://creativecommons.org/ns#"
   xmlns:rdf="http://www.w3.org/1999/02/22-rdf-syntax-ns#"
   xmlns:svg="http://www.w3.org/2000/svg"
   xmlns="http://www.w3.org/2000/svg"
   xmlns:sodipodi="http://sodipodi.sourceforge.net/DTD/sodipodi-0.dtd"
   xmlns:inkscape="http://www.inkscape.org/namespaces/inkscape"
   width="100%"
   height="100%"
   viewBox="0 0 1426 147"
   version="1.1"
   xml:space="preserve"
   style="fill-rule:evenodd;clip-rule:evenodd;stroke-linejoin:round;stroke-miterlimit:2;"
   id="svg89"
   sodipodi:docname="logotype_br1.svg"
   inkscape:version="1.0.1 (3bc2e813f5, 2020-09-07)"><metadata
   id="metadata95"><rdf:RDF><cc:Work
       rdf:about=""><dc:format>image/svg+xml</dc:format><dc:type
         rdf:resource="http://purl.org/dc/dcmitype/StillImage" /><dc:title></dc:title></cc:Work></rdf:RDF></metadata><defs
   id="defs93" /><sodipodi:namedview
   pagecolor="#ffffff"
   bordercolor="#666666"
   borderopacity="1"
   objecttolerance="10"
   gridtolerance="10"
   guidetolerance="10"
   inkscape:pageopacity="0"
   inkscape:pageshadow="2"
   inkscape:window-width="1852"
   inkscape:window-height="1020"
   id="namedview91"
   showgrid="false"
   inkscape:pagecheckerboard="true"
   inkscape:zoom="0.90462833"
   inkscape:cx="715.21085"
   inkscape:cy="73.5"
   inkscape:window-x="68"
   inkscape:window-y="28"
   inkscape:window-maximized="1"
   inkscape:current-layer="svg89" />
    <g
   transform="translate(-4142.55,-313.739)"
   id="g87">
        <g
   transform="translate(2429.02)"
   id="g85">
            <g
   transform="translate(1615.08,190.159)"
   id="g83">
                <g
   transform="matrix(144,0,0,144,102.404,233.02)"
   id="g17">
                    <path
   d="M -0.028,-0.009 V 0 h 0.16 V -0.009 H 0.051 L 0.204,-0.727 0.319,0.01 H 0.331 L 0.744,-0.733 0.59,-0.009 H 0.518 V 0 H 0.823 V -0.009 H 0.745 L 0.9,-0.741 H 0.963 V -0.75 H 0.743 L 0.444,-0.214 0.357,-0.75 H 0.123 v 0.009 h 0.075 l -0.156,0.732 z"
   style="fill:#202020;fill-rule:nonzero"
   id="path15" />
                </g>
                <g
   transform="matrix(144,0,0,144,227.9,233.02)"
   id="g21">
                    <path
   d="m 0.216,0.01 c 0.156,0 0.308,-0.115 0.308,-0.305 0,-0.125 -0.103,-0.175 -0.199,-0.175 -0.156,0 -0.308,0.115 -0.308,0.305 0,0.125 0.103,0.175 0.199,0.175 z m 0,-0.009 c -0.039,0 -0.055,-0.039 -0.055,-0.106 0,-0.124 0.065,-0.356 0.164,-0.356 0.039,0 0.055,0.039 0.055,0.106 0,0.124 -0.065,0.356 -0.164,0.356 z"
   style="fill:#202020;fill-rule:nonzero"
   id="path19" />
                </g>
                <g
   transform="matrix(144,0,0,144,312.14,233.02)"
   id="g25">
                    <path
   d="m 0.216,0.01 c 0.156,0 0.308,-0.115 0.308,-0.305 0,-0.125 -0.103,-0.175 -0.199,-0.175 -0.156,0 -0.308,0.115 -0.308,0.305 0,0.125 0.103,0.175 0.199,0.175 z m 0,-0.009 c -0.039,0 -0.055,-0.039 -0.055,-0.106 0,-0.124 0.065,-0.356 0.164,-0.356 0.039,0 0.055,0.039 0.055,0.106 0,0.124 -0.065,0.356 -0.164,0.356 z"
   style="fill:#202020;fill-rule:nonzero"
   id="path23" />
                </g>
                <g
   transform="matrix(144,0,0,144,391.988,233.02)"
   id="g29">
                    <path
   d="M 0.129,-0.451 0.021,0 h 0.14 l 0.048,-0.202 c 0.039,-0.139 0.107,-0.247 0.168,-0.247 0.035,0 0.03,0.066 0.004,0.142 l -0.068,0.2 c -0.003,0.009 -0.005,0.021 -0.005,0.036 0,0.053 0.036,0.081 0.103,0.081 0.096,0 0.157,-0.073 0.195,-0.173 L 0.597,-0.166 c -0.031,0.085 -0.088,0.155 -0.143,0.155 -0.013,0 -0.019,-0.007 -0.019,-0.018 0,-0.005 0.001,-0.012 0.003,-0.018 L 0.525,-0.308 C 0.556,-0.402 0.514,-0.47 0.412,-0.47 c -0.089,0 -0.144,0.082 -0.184,0.189 L 0.271,-0.46 h -0.21 v 0.009 z"
   style="fill:#202020;fill-rule:nonzero"
   id="path27" />
                </g>
                <g
   transform="matrix(144,0,0,144,482.348,233.02)"
   id="g33">
                    <path
   d="M 0.386,-0.397 C 0.378,-0.413 0.365,-0.424 0.34,-0.424 c -0.031,0 -0.058,0.025 -0.058,0.06 0,0.04 0.035,0.061 0.064,0.061 0.036,0 0.063,-0.024 0.063,-0.065 0,-0.052 -0.058,-0.101 -0.16,-0.101 -0.086,0 -0.186,0.053 -0.186,0.152 0,0.146 0.228,0.152 0.228,0.24 0,0.042 -0.044,0.08 -0.114,0.08 -0.104,0 -0.149,-0.045 -0.161,-0.085 0.004,0.013 0.024,0.031 0.053,0.031 0.034,0 0.067,-0.025 0.067,-0.065 0,-0.045 -0.038,-0.066 -0.068,-0.066 -0.035,0 -0.071,0.026 -0.071,0.072 0,0.055 0.051,0.122 0.18,0.122 0.112,0 0.207,-0.07 0.207,-0.164 0,-0.133 -0.225,-0.145 -0.225,-0.241 0,-0.036 0.032,-0.067 0.092,-0.067 0.076,0 0.124,0.031 0.135,0.063 z"
   style="fill:#202020;fill-rule:nonzero"
   id="path31" />
                </g>
                <g
   transform="matrix(144,0,0,144,541.892,233.02)"
   id="g37">
                    <path
   d="m 0.379,-0.307 -0.068,0.2 c -0.002,0.009 -0.005,0.021 -0.005,0.036 0,0.053 0.036,0.081 0.103,0.081 0.096,0 0.155,-0.073 0.193,-0.173 L 0.594,-0.166 c -0.031,0.085 -0.087,0.155 -0.142,0.155 -0.013,0 -0.019,-0.007 -0.019,-0.018 0,-0.005 0.001,-0.012 0.003,-0.018 L 0.523,-0.308 C 0.554,-0.402 0.512,-0.47 0.41,-0.47 c -0.091,0 -0.146,0.085 -0.186,0.194 L 0.335,-0.75 h -0.21 v 0.009 H 0.193 L 0.02,0 h 0.14 l 0.044,-0.193 c 0.039,-0.144 0.109,-0.256 0.171,-0.256 0.035,0 0.03,0.066 0.004,0.142 z"
   style="fill:#202020;fill-rule:nonzero"
   id="path35" />
                </g>
                <g
   transform="matrix(144,0,0,144,634.484,233.02)"
   id="g41">
                    <path
   d="m 0.216,0.01 c 0.156,0 0.308,-0.115 0.308,-0.305 0,-0.125 -0.103,-0.175 -0.199,-0.175 -0.156,0 -0.308,0.115 -0.308,0.305 0,0.125 0.103,0.175 0.199,0.175 z m 0,-0.009 c -0.039,0 -0.055,-0.039 -0.055,-0.106 0,-0.124 0.065,-0.356 0.164,-0.356 0.039,0 0.055,0.039 0.055,0.106 0,0.124 -0.065,0.356 -0.164,0.356 z"
   style="fill:#202020;fill-rule:nonzero"
   id="path39" />
                </g>
                <g
   transform="matrix(144,0,0,144,715.772,233.02)"
   id="g45">
                    <path
   d="M 0.345,-0.163 0.337,-0.166 c -0.028,0.075 -0.085,0.149 -0.142,0.149 -0.013,0 -0.018,-0.008 -0.018,-0.019 0,-0.005 0.001,-0.012 0.002,-0.018 L 0.271,-0.451 H 0.368 V -0.46 H 0.273 l 0.023,-0.1 H 0.157 l -0.023,0.1 H 0.048 v 0.009 H 0.132 L 0.05,-0.095 c -0.001,0.006 -0.002,0.017 -0.002,0.022 0,0.06 0.033,0.083 0.094,0.083 0.096,0 0.166,-0.073 0.203,-0.173 z"
   style="fill:#202020;fill-rule:nonzero"
   id="path43" />
                </g>
                <g
   transform="matrix(144,0,0,144,804.764,233.02)"
   id="g49">
                    <path
   d="M 0.308,0 C 0.566,0 0.757,-0.227 0.757,-0.485 0.757,-0.663 0.63,-0.75 0.468,-0.75 H 0.123 v 0.009 H 0.221 L 0.055,-0.009 H -0.038 V 0 Z m 0.145,-0.741 c 0.109,0 0.135,0.099 0.135,0.191 0,0.187 -0.101,0.541 -0.3,0.541 H 0.21 l 0.166,-0.732 z"
   style="fill:#202020;fill-rule:nonzero"
   id="path47" />
                </g>
                <g
   transform="matrix(144,0,0,144,915.212,233.02)"
   id="g53">
                    <path
   d="m 0.171,-0.116 c 0,-0.03 0.003,-0.062 0.01,-0.093 0.117,-0.003 0.315,-0.025 0.315,-0.158 0,-0.072 -0.076,-0.103 -0.173,-0.103 -0.146,0 -0.306,0.127 -0.306,0.315 0,0.12 0.088,0.165 0.184,0.165 0.111,0 0.201,-0.076 0.245,-0.153 H 0.437 c -0.044,0.073 -0.124,0.134 -0.199,0.134 -0.049,0 -0.067,-0.048 -0.067,-0.107 z M 0.33,-0.462 c 0.028,0 0.035,0.04 0.035,0.077 0,0.122 -0.107,0.16 -0.182,0.167 0.026,-0.126 0.093,-0.244 0.147,-0.244 z"
   style="fill:#202020;fill-rule:nonzero"
   id="path51" />
                </g>
                <g
   transform="matrix(144,0,0,144,988.868,233.02)"
   id="g57">
                    <path
   d="M 0.386,-0.397 C 0.378,-0.413 0.365,-0.424 0.34,-0.424 c -0.031,0 -0.058,0.025 -0.058,0.06 0,0.04 0.035,0.061 0.064,0.061 0.036,0 0.063,-0.024 0.063,-0.065 0,-0.052 -0.058,-0.101 -0.16,-0.101 -0.086,0 -0.186,0.053 -0.186,0.152 0,0.146 0.228,0.152 0.228,0.24 0,0.042 -0.044,0.08 -0.114,0.08 -0.104,0 -0.149,-0.045 -0.161,-0.085 0.004,0.013 0.024,0.031 0.053,0.031 0.034,0 0.067,-0.025 0.067,-0.065 0,-0.045 -0.038,-0.066 -0.068,-0.066 -0.035,0 -0.071,0.026 -0.071,0.072 0,0.055 0.051,0.122 0.18,0.122 0.112,0 0.207,-0.07 0.207,-0.164 0,-0.133 -0.225,-0.145 -0.225,-0.241 0,-0.036 0.032,-0.067 0.092,-0.067 0.076,0 0.124,0.031 0.135,0.063 z"
   style="fill:#202020;fill-rule:nonzero"
   id="path55" />
                </g>
                <g
   transform="matrix(144,0,0,144,1054.32,233.02)"
   id="g61">
                    <path
   d="m 0.151,-0.675 c 0,0.048 0.037,0.085 0.084,0.085 0.048,0 0.086,-0.037 0.086,-0.085 0,-0.048 -0.038,-0.085 -0.086,-0.085 -0.047,0 -0.084,0.037 -0.084,0.085 z m 0.197,0.512 -0.007,-0.003 c -0.031,0.083 -0.091,0.15 -0.142,0.15 -0.013,0 -0.018,-0.009 -0.018,-0.02 0,-0.005 0.001,-0.012 0.002,-0.018 L 0.281,-0.46 H 0.065 v 0.009 H 0.14 l -0.086,0.356 c -0.001,0.006 -0.002,0.017 -0.002,0.022 0,0.06 0.032,0.083 0.094,0.083 0.096,0 0.165,-0.073 0.202,-0.173 z"
   style="fill:#202020;fill-rule:nonzero"
   id="path59" />
                </g>
                <g
   transform="matrix(144,0,0,144,1102.41,233.02)"
   id="g65">
                    <path
   d="m 0.243,-0.16 c 0.126,0 0.243,-0.075 0.243,-0.185 0,-0.025 -0.006,-0.046 -0.017,-0.063 0.033,-0.034 0.068,-0.048 0.098,-0.048 0.036,0 0.066,0.018 0.073,0.057 -0.004,-0.014 -0.025,-0.032 -0.05,-0.032 -0.036,0 -0.063,0.026 -0.063,0.059 0,0.043 0.033,0.063 0.063,0.063 0.03,0 0.063,-0.019 0.063,-0.074 0,-0.042 -0.028,-0.082 -0.086,-0.082 -0.03,0 -0.068,0.014 -0.103,0.049 -0.03,-0.038 -0.086,-0.054 -0.151,-0.054 -0.126,0 -0.243,0.075 -0.243,0.185 0,0.073 0.051,0.11 0.121,0.121 -0.077,0.011 -0.154,0.044 -0.154,0.11 0,0.042 0.034,0.068 0.085,0.08 -0.055,0.006 -0.165,0.039 -0.165,0.125 0,0.082 0.119,0.109 0.237,0.109 0.135,0 0.278,-0.077 0.278,-0.218 0,-0.086 -0.045,-0.127 -0.135,-0.127 -0.028,0 -0.071,0.001 -0.106,0.001 -0.056,0 -0.099,-0.007 -0.099,-0.029 0,-0.029 0.048,-0.043 0.086,-0.048 0.008,0 0.016,0.001 0.025,0.001 z m 0.002,-0.009 c -0.029,0 -0.039,-0.037 -0.039,-0.071 0,-0.084 0.045,-0.221 0.104,-0.221 0.029,0 0.039,0.037 0.039,0.071 0,0.084 -0.045,0.221 -0.104,0.221 z M 0.079,0.14 C 0.079,0.088 0.105,0.045 0.136,0.029 0.155,0.033 0.177,0.034 0.2,0.034 h 0.127 c 0.055,0 0.086,0.019 0.086,0.073 0,0.102 -0.125,0.143 -0.214,0.143 -0.086,0 -0.12,-0.045 -0.12,-0.11 z"
   style="fill:#202020;fill-rule:nonzero"
   id="path63" />
                </g>
                <g
   transform="matrix(144,0,0,144,1196.59,233.02)"
   id="g69">
                    <path
   d="M 0.129,-0.451 0.021,0 h 0.14 l 0.048,-0.202 c 0.039,-0.139 0.107,-0.247 0.168,-0.247 0.035,0 0.03,0.066 0.004,0.142 l -0.068,0.2 c -0.003,0.009 -0.005,0.021 -0.005,0.036 0,0.053 0.036,0.081 0.103,0.081 0.096,0 0.157,-0.073 0.195,-0.173 L 0.597,-0.166 c -0.031,0.085 -0.088,0.155 -0.143,0.155 -0.013,0 -0.019,-0.007 -0.019,-0.018 0,-0.005 0.001,-0.012 0.003,-0.018 L 0.525,-0.308 C 0.556,-0.402 0.514,-0.47 0.412,-0.47 c -0.089,0 -0.144,0.082 -0.184,0.189 L 0.271,-0.46 h -0.21 v 0.009 z"
   style="fill:#202020;fill-rule:nonzero"
   id="path67" />
                </g>
                <g
   transform="matrix(144,0,0,144,1322.95,233.02)"
   id="g73">
                    <path
   d="m 0.333,0.01 c 0.074,0 0.141,-0.03 0.196,-0.075 L 0.586,0 H 0.593 L 0.648,-0.22 H 0.639 c -0.067,0.118 -0.169,0.216 -0.287,0.216 -0.104,0 -0.134,-0.084 -0.134,-0.181 0,-0.207 0.106,-0.56 0.305,-0.56 0.082,0 0.169,0.064 0.178,0.215 H 0.71 L 0.76,-0.75 H 0.753 L 0.664,-0.682 C 0.626,-0.732 0.57,-0.76 0.498,-0.76 c -0.243,0 -0.445,0.232 -0.445,0.505 0,0.163 0.112,0.265 0.28,0.265 z"
   style="fill:#202020;fill-rule:nonzero"
   id="path71" />
                </g>
                <g
   transform="matrix(144,0,0,144,1423.03,233.02)"
   id="g77">
                    <path
   d="m 0.216,0.01 c 0.156,0 0.308,-0.115 0.308,-0.305 0,-0.125 -0.103,-0.175 -0.199,-0.175 -0.156,0 -0.308,0.115 -0.308,0.305 0,0.125 0.103,0.175 0.199,0.175 z m 0,-0.009 c -0.039,0 -0.055,-0.039 -0.055,-0.106 0,-0.124 0.065,-0.356 0.164,-0.356 0.039,0 0.055,0.039 0.055,0.106 0,0.124 -0.065,0.356 -0.164,0.356 z"
   style="fill:#202020;fill-rule:nonzero"
   id="path75" />
                </g>
                <g
   transform="matrix(144,0,0,144,1494.02,233.02)"
   id="g81">
                    <path
   d="m 0.025,-0.08 c 0,0.049 0.041,0.09 0.09,0.09 0.05,0 0.09,-0.041 0.09,-0.09 0,-0.05 -0.04,-0.09 -0.09,-0.09 -0.049,0 -0.09,0.04 -0.09,0.09 z"
   style="fill:#202020;fill-rule:nonzero"
   id="path79" />
                </g>
            </g>
        </g>
    </g>
</svg>
